<?xml version="1.0" encoding="utf-8"?>
<!-- Generator: Adobe Illustrator 25.2.0, SVG Export Plug-In . SVG Version: 6.00 Build 0)  -->
<svg version="1.1" id="Layer_1" xmlns="http://www.w3.org/2000/svg" xmlns:xlink="http://www.w3.org/1999/xlink" x="0px" y="0px"
	 viewBox="0 0 149.6 184.7" style="enable-background:new 0 0 149.6 184.7;" xml:space="preserve">
<style type="text/css">
	.st0{fill-rule:evenodd;clip-rule:evenodd;fill:#DAA135;}
	.st1{fill:#A7702A;}
</style>
<g id="Layer_2_1_">
	<g id="Layer_1-2">
		<path class="st0" d="M81.2,59.6c-4.6-1-9.4-0.8-14,0.5C78,64.5,85.1,74.1,86.6,83.5c-1.3-8.4-10.3-5.1-15.4-4.4
			c6.8,2.1,13.3,11.1,13.9,20.3c-4.6-5.7-7.7-6.3-12.6-7.5c0.6,0.9,1.2,1.8,1.8,2.8c9.4,5.3,18.4,12,28.2,16.2
			c4.4,2,9.1,3.1,13.9,3.5c2.4,0.2,4.9,0,7.3-0.4c0.9-6.7,1.2-13.5,0.8-20.2l0,0l0,0c-0.4-6.8-1.4-13.6-2.9-20.2
			c-3.8-13.4-11.2-25.6-21.4-35.1c4.4,2.1,8.4,4.8,11.9,8.1c-5.2-11.1-12.5-21-21.4-29.4C80.4,8.4,68.1,2.5,54.9,0
			c6,23.1-8,36.1-42.1,39l-1.1,0.1C12.2,60,25.8,61,37.5,61.8c2.8,0.1,5.6,0.5,8.4,1c1.7,0.4,3.2,1.3,4.4,2.6
			c0.8,0.9,1.4,2.1,1.7,3.3c0.3,1.3,0.3,2.5,0,3.8c-0.6,2.1-1.8,4-3.5,5.4L48.4,78l-9.7,9.3c2.3-0.4,4.6-0.6,6.9-0.7l5.5-6
			c7.1-6.1,4.7-17.8-4.4-20c-3-0.5-6-0.9-9-0.9C28,59,16.9,58.2,14.4,44.4C22.8,55.8,62,38.5,81.2,59.6z"/>
		<path class="st0" d="M149.4,104c-12.6,10.6-23.4,14-33.2,13.5c-5.2-0.4-10.3-1.6-15-3.7C83.5,106.3,68,90.3,48.8,89.7
			c-16.4-0.5-31.9,7.4-41.1,21c-7.8,11.8-9.9,26.6-5.5,40.1c8.6,26.4,36.7,31.6,56,23.4c-1-0.8-2-1.6-2.9-2.4
			C45,163.4,35.1,157,25.5,152.8c14,2.9,25.5,11.2,37.1,19.2C103,199.6,153.3,153.8,149.4,104z M54,93.7c0.1-0.4,0.5-0.7,0.9-0.7
			c0,0,0.1,0,0.1,0c1,0,1.9,0.2,2.8,0.5c1,0.4,0.2,1.3,0.2,2s-0.5,0.5-0.9,0.4c-0.7-0.2-1.5-0.3-2.2-0.4
			C53.7,95.4,53.8,94.6,54,93.7z M49.6,92.3c1.3,0.2,1,1.5,1.6,2.3C49,94,46,95.2,44.7,92C46.3,91.9,48,92.1,49.6,92.3L49.6,92.3z
			 M43.5,94.2c-4,0.9-4.7,0.7-6.3-1.7C41,91.5,42.2,91.8,43.5,94.2L43.5,94.2z M36.5,95.7c-2.3,0.2-4.6,2.5-6.2-0.7
			C33,93.2,34.6,93.2,36.5,95.7L36.5,95.7z M18.3,101.9c1.8-2.2,3.4-2.4,5.6-0.6c-1,0.8-2,1.5-3,2.1c-1,0.5-1.8-0.5-2.7-0.8
			C17.8,102.4,18.1,102.1,18.3,101.9z M13.1,106.9c0.3-0.4,0.6-0.7,0.9-1.1c1.8-2,1.9-2,4.1-0.3c-0.8,0.9-1.6,1.7-2.4,2.6
			c-0.3,0.3-2.7-0.2-2.9-0.6S13,107.1,13.1,106.9L13.1,106.9z M10.5,110.3c0.2-0.4,0.7-0.6,1.1-0.5c0,0,0.1,0,0.1,0
			c0.6,0.2,1.2,0.5,1.8,0.7c-0.7,1.2-1.2,2.3-1.9,3.3c-1,1.4-1.9,0-3,0.1C9.1,112.7,9.8,111.5,10.5,110.3L10.5,110.3z M5.7,120.1
			c0-0.2,0.1-0.3,0.2-0.4l1-2.4c0.6-1.4,1.6-0.4,2.4-0.2c1.1,0.2,0.2,0.9,0.1,1.3c-0.2,0.5-0.4,1-0.6,1.5c-0.6,1.4-1.4,1.7-2.8,1.2
			C5.4,120.8,5.6,120.5,5.7,120.1L5.7,120.1z M4.4,124c0.4-0.8,1.3,0,2-0.1c0.5,0,0.7,0.2,0.5,0.7c-0.3,1-0.7,1.9-1,2.9
			c-0.6,1.2-1.6,1-2.5,0.8c-0.1,0-0.3-0.2-0.3-0.3C3.4,126.7,3.8,125.3,4.4,124L4.4,124z M2.7,135.2c-0.2-1.4-0.3-2.8-0.3-4.2
			c0-0.1,0.2-0.2,0.4-0.2c1,0,2,0.1,2.3,1.4c0.1,1,0.2,2,0.3,3c0,0.5-0.2,0.7-0.7,0.5C4,135.6,2.9,136,2.7,135.2z M3.5,142.4
			c-0.1-0.9-0.2-1.8-0.4-2.6c0-0.2-0.1-0.3-0.1-0.5c0-0.3-0.1-0.7,0.5-0.8c1.5-0.1,2.1,0.3,2.4,1.8c0.1,0.5,0.2,1.1,0.2,1.6
			c0,0.4,0.7,1.3-0.4,1.3C4.9,143.2,3.7,144,3.5,142.4L3.5,142.4z M5.3,150.1c-0.5-1.3-0.8-2.7-1-4.1c1,0.4,2.3-0.8,2.9,0.8
			c0.4,1.2,0.7,2.4,1,3.7c-0.6,0.1-1.2,0.2-1.9,0.2C5.8,150.9,5.4,150.6,5.3,150.1C5.3,150.1,5.3,150.1,5.3,150.1L5.3,150.1z
			 M7.6,155.3c-0.2-0.4-0.4-0.9-0.6-1.3c-0.1-0.2-0.2-0.4,0-0.6s2.7-0.2,2.9,0.1c0.6,1,1.1,2.1,1.7,3.1
			C8.9,157.7,8.8,157.6,7.6,155.3L7.6,155.3z M10.6,160.2c-0.1-0.2-0.3-0.6,0-0.6c0.9-0.1,2-0.9,2.8-0.1c0.9,0.9,1.6,1.8,2.4,2.8
			C13.4,163.4,11.8,162.7,10.6,160.2L10.6,160.2z M15.1,165.1c2.8-1.2,2.8-1.2,5.5,1.8C18.2,168.7,17.6,168.5,15.1,165.1L15.1,165.1
			z M45.5,173.8c0.9,0,1.9-0.1,2.8-0.2c2.6-0.1,5.1-0.8,7.7-0.8c-4.6,2.2-9.4,2.9-14.6,3.2C43.2,173.9,43.2,174,45.5,173.8
			L45.5,173.8z M41,173.7c-0.7,0.7-0.7,2-1.9,2.1c-1.7,0-3.3-0.1-4.9-0.4C36,172.4,38.7,174.1,41,173.7L41,173.7z M33.4,173.3
			c-1.9,1.9-3.1,2-6.5,0.1C29,171.4,29.8,171.4,33.4,173.3L33.4,173.3z M26.8,170.7c-2.5,1.9-4.1,1.6-6.2-0.9
			C23,167.1,24.6,169.9,26.8,170.7L26.8,170.7z M23.9,98.2c3.2-2.6,3.9-2.7,5.8-0.4C26.2,100.1,26.2,100.1,23.9,98.2z M35.4,153.4
			c-0.8-0.1-1.7-0.2-2.5-0.3c-2.3-0.4-4.6-0.3-6.9-0.7c4.5-0.7,9-0.6,13.5,0.1C37.5,153.7,37.5,153.7,35.4,153.4z M39.7,155.2
			c0.9-0.4,1.4-1.6,2.6-1.1c1.5,0.6,3,1.4,4.4,2.3C43.8,158.4,42,155.8,39.7,155.2L39.7,155.2z M46.3,159.3c2.3-1.5,3.5-1.3,6.4,1.3
			C50.3,162,49.5,161.8,46.3,159.3z M52.2,162.9c2.3-1.5,3.4-1.3,6.4,1.3C56.2,165.6,55.4,165.4,52.2,162.9z M57.9,166.7
			c2.3-1.5,3.5-1.3,6.4,1.3C61.9,169.4,61,169.2,57.9,166.7L57.9,166.7z M64.9,97.8c-0.2,0.9-0.8,0.3-1.2,0.2
			c-0.9-0.3-1.7-0.6-2.6-0.9c-0.5-0.2-0.8-0.4-0.7-1c0.3-2.2-0.2-2,2-1.4c0.8,0.2,1.5,0.5,2.4,0.8C65.8,96.1,65,97,64.9,97.8
			L64.9,97.8z M69.7,171.4c-0.5,0.5-0.4,1.7-1.5,1.4c-0.9-0.4-1.7-0.8-2.5-1.4c-0.4-0.2-0.5-0.7-0.3-1.1c0.4-0.8,0.8-1.5,1.9-0.8
			c0.6,0.4,1.3,0.7,1.9,1C69.6,170.8,70.2,170.9,69.7,171.4L69.7,171.4z M67.6,99.5c-1.1-0.7-0.2-1.6,0-2.3s0.8,0,1.2,0
			c0.3,0.1,0.6,0.2,0.9,0.4v0.1c0.4,0.2,0.9,0.4,1.4,0.6c1.3,0.8,1.5,1.5,0.8,2.8c-0.2,0.5-0.5,0.3-0.8,0.1
			C69.8,100.7,68.7,100.2,67.6,99.5z M76.4,174c-0.4,0.7-0.3,1.9-1.4,1.8c-0.9-0.4-1.7-0.6-2.4-0.9c-2.2-1-1.9-0.5-0.7-2.4
			c0.3-0.5,0.7-0.5,1.1-0.3c0.8,0.3,1.7,0.6,2.6,1C76,173.3,76.8,173.2,76.4,174z M77.7,105c-0.1,0.9-0.5,0.9-1.1,0.3
			c-0.7-0.6-1.5-1.2-2.2-1.8c-0.4-0.2-0.6-0.7-0.5-1.1c0.3-1.8,0.6-1.9,2-0.8c0.4,0.3,0.9,0.7,1.3,1C78.2,103.6,78.2,103.6,77.7,105
			z M83.9,175.8c-0.3,1.5-0.9,2-2.4,1.7c-0.5-0.1-1-0.2-1.4-0.4v0.1c-0.3-0.1-0.6-0.1-0.9-0.2c-0.4-0.2-1.3,0-1-0.7s0.2-1.9,1.5-1.8
			s2.5,0.5,3.8,0.7C83.7,175.2,84,175.2,83.9,175.8L83.9,175.8z M83.9,108.5c-0.1,0.9-0.5,0.9-1.1,0.3c-0.7-0.6-1.5-1.2-2.2-1.8
			c-0.4-0.2-0.6-0.7-0.5-1.1c0.3-1.8,0.6-1.9,2-0.8c0.4,0.3,0.9,0.7,1.3,1C84.5,107.1,84.5,107.1,83.9,108.5L83.9,108.5z
			 M85.6,109.7c0.7-0.7,1.3-1.4,2.5-0.8c0.8,0.6,1.7,1.1,2.5,1.7c0.4,0.3,0.4,0.6,0,0.9c-0.6,0.4-0.9,1.5-1.7,1.1
			c-1.2-0.7-2.4-1.5-3.4-2.5C85.6,110.1,85.5,109.8,85.6,109.7L85.6,109.7z M90.8,177c-0.5,1.4-0.5,1.4-2,1.4
			c-0.6,0-1.1-0.1-1.6-0.1c-1.9-0.1-2-0.3-1-1.9c0.2-0.4,0.7-0.6,1.1-0.5c1,0.1,1.9,0.1,2.9,0.1C91,176,91.3,176.3,90.8,177z
			 M92.7,114.1c0.8-1.2,1.6-1.5,2.9-0.7c0.5,0.2,1,0.5,1.4,0.8c0.3,0.3,1.5,0.3,0.7,1.2c-0.5,0.6-0.7,2-2.1,1.2l-2.2-1.4
			c-0.1-0.1-0.3-0.1-0.4-0.2C92.8,114.7,92.4,114.6,92.7,114.1z M97.9,177.5c-1.6,0.4-3.3,0.7-5,0.7c0.4-0.8,0.1-2,1.2-2.3
			c1.5-0.3,3-0.5,4.7-0.7C98.6,176.1,99.1,177.2,97.9,177.5z M101.4,116.5c1.2,0.4,2.2,1,3.5,1.6c-0.3,0.5-0.7,1.1-1,1.6
			c-0.2,0.4-0.7,0.6-1.1,0.4c0,0-0.1,0-0.1,0c-1.3-0.5-2.6-1.1-3.8-1.8C99.9,117.7,99.8,116,101.4,116.5L101.4,116.5z M104.7,175.2
			c-1.2,0.6-2.5,1.1-3.8,1.4c0.2-0.8-0.2-1.8,0.7-2.2c1.2-0.5,2.4-0.8,3.8-1.3C105.3,174.1,105.6,174.9,104.7,175.2L104.7,175.2z
			 M106.3,121c-0.1-0.4,1.5-2.2,2-2.2c1.2,0.2,2.3,0.4,3.4,0.7c-0.9,2.7-0.9,2.7-3.5,2.2c-0.5-0.1-0.9-0.2-1.4-0.3
			C106.6,121.2,106.3,121.2,106.3,121z M112.2,171.9c-1.4,0.9-2.9,1.7-4.4,2.3c0.1-0.9-0.6-1.9,0.4-2.6c1.3-0.8,2.7-1.5,4.2-2.3
			C112.4,170.2,113.3,171.1,112.2,171.9L112.2,171.9z M113.4,122c0.5-0.8,0.5-2.1,1.7-2.3c1.2-0.1,2.4-0.1,3.7,0
			c-0.7,2.7-2.2,3.5-4.9,2.7C113.7,122.3,113.2,122.2,113.4,122L113.4,122z M118.8,168c-1.3,1.1-2.7,2-4.2,2.8
			c0-0.9-0.8-1.9,0.1-2.6c1.2-0.9,2.5-1.8,3.9-2.7C118.8,166.3,119.8,167,118.8,168L118.8,168z M124.7,163.1
			c-1.1,1.2-2.4,2.4-3.8,3.3c-0.1-0.9-1-1.7-0.2-2.6c1.1-1.1,2.3-2.1,3.5-3.2c0.2,0.8,1.3,1.4,0.4,2.3V163.1z M120.6,122.1
			c0.8-2.9,0.8-2.9,4.9-3.1c-0.2,2.9-0.7,3.2-4.9,3L120.6,122.1z M130.2,157.5c-1,1.3-2.2,2.5-3.5,3.5c-0.1-0.9-1.2-1.6-0.4-2.6
			c1-1.2,2.1-2.2,3.3-3.4C129.9,155.8,131,156.4,130.2,157.5L130.2,157.5z M127.6,120.9c-0.5-3.6,2.7-3,4.7-4.2
			C132.2,119.8,131,120.8,127.6,120.9L127.6,120.9z M134.4,151.8c-0.7,1.1-1.5,2.2-2.4,3.2c-0.2-0.8-1.2-1.4-0.6-2.3
			c0.7-1,1.6-2,2.6-3.1C134.3,150.4,135,150.9,134.4,151.8L134.4,151.8z M138.9,113.8c0.3,2.7-0.5,3.6-4.1,5
			C134.6,116,135.2,115.3,138.9,113.8L138.9,113.8z M135.7,149.5c-0.7-2.4-0.7-2.4,0.5-4c0.5-0.6,0.9-1.3,1.4-1.9
			c1.3-1.7,2.1-3.8,3.4-5.5C140.3,142.2,138.2,145.8,135.7,149.5L135.7,149.5z M144.9,111.8c-1.2,1.2-2.4,2.2-3.8,3.2
			c-0.8-3.4,2.3-4.1,3.8-6C144.9,109.9,145.8,110.8,144.9,111.8L144.9,111.8z"/>
		<path class="st1" d="M14.4,44.4c0,0,2.8,4.7,18.3,4.3c14.7-0.4,37-2.7,48.5,10.9c0,0-7.6-1.3-14,0.5c0,0,16.2,5.3,19.4,23.5
			c0,0-8.6-6.1-15.4-4.4c0,0,12.5,3.8,14.1,20.9c-3.1-4.1-7.7-7-12.7-8l1.6,2.7c0,0-16.5-10.6-28.7-8.1c0,0,5.7-6.3,7.2-8.2
			c3.1-4,3.1-9.6,0-13.6c-3.6-4.6-9.6-4.5-11.7-4.8C34.3,59,17.4,61.4,14.4,44.4z"/>
	</g>
</g>
</svg>
