<svg xmlns="http://www.w3.org/2000/svg" viewBox="0 0 149.58 214.04"><defs><style>.cls-1,.cls-2{fill:#0e0e0e;}.cls-1{fill-rule:evenodd;}.cls-3{fill:#383838;}</style></defs><g id="Layer_2" data-name="Layer 2"><g id="Layer_1-2" data-name="Layer 1"><path class="cls-1" d="M81.23,59.57a28.91,28.91,0,0,0-14,.46c10.78,4.49,17.9,14.11,19.37,23.47-1.32-8.41-10.26-5.14-15.45-4.39C78,81.25,84.43,90.19,85.06,99.42c-4.55-5.65-7.73-6.29-12.63-7.5a32.62,32.62,0,0,1,1.77,2.76c9.45,5.31,18.44,12,28.18,16.15a40.43,40.43,0,0,0,13.89,3.46,30.51,30.51,0,0,0,7.32-.41,105.81,105.81,0,0,0,.81-20.24h0v0a122.27,122.27,0,0,0-2.88-20.24,75.83,75.83,0,0,0-21.38-35.06,46.83,46.83,0,0,1,11.93,8.13A96.8,96.8,0,0,0,90.63,17.07,77.86,77.86,0,0,0,54.89,0q9,34.61-42.07,39l-1.09.06C12.19,60,25.79,61,37.49,61.81a59,59,0,0,1,8.41,1,8.31,8.31,0,0,1,4.38,2.6A7.69,7.69,0,0,1,52,68.68a8.4,8.4,0,0,1,0,3.8,10.83,10.83,0,0,1-3.51,5.42l-.06.06-9.74,9.28a46.09,46.09,0,0,1,6.86-.69l5.54-6c7.09-6.06,4.68-17.82-4.42-20a58,58,0,0,0-9-.93C28,59,16.91,58.18,14.43,44.4,22.79,55.76,62,38.46,81.23,59.57Z"/><path class="cls-1" d="M149.36,104c-12.57,10.61-23.4,14-33.2,13.5a44.72,44.72,0,0,1-15-3.69C83.54,106.33,68,90.3,48.84,89.72a48,48,0,0,0-41.09,21,46.67,46.67,0,0,0-5.48,40.14c8.65,26.35,36.66,31.65,56,23.41-1-.83-1.95-1.65-2.93-2.44q-15.53-12.69-29.8-19.07C39.51,155.63,51,164,62.67,172,103,199.63,153.33,153.79,149.36,104ZM54,93.65A.8.8,0,0,1,55,93a11.8,11.8,0,0,1,2.81.47c1,.41.21,1.34.25,2s-.47.46-.86.37A14.1,14.1,0,0,0,55,95.46C53.7,95.37,53.82,94.56,54,93.65Zm-4.38-1.31c1.26.2,1,1.52,1.6,2.31-2.26-.69-5.2.6-6.55-2.64A24.38,24.38,0,0,1,49.66,92.34Zm-6.08,1.87c-3.95.88-4.74.67-6.28-1.67C41.05,91.54,42.2,91.85,43.58,94.21Zm-7,1.53c-2.3.18-4.58,2.54-6.25-.65C33.05,93.15,34.59,93.24,36.57,95.74ZM18.3,101.87c1.75-2.2,3.42-2.42,5.57-.64a27.81,27.81,0,0,1-3,2.12c-1,.54-1.82-.5-2.7-.84C17.84,102.38,18.15,102.06,18.3,101.87Zm-5.17,5c.31-.37.62-.74.94-1.09,1.81-2,1.89-2,4.14-.32-.8.86-1.59,1.73-2.41,2.56-.3.31-2.69-.22-2.86-.6S13,107.07,13.13,106.91Zm-2.58,3.41a.84.84,0,0,1,1.18-.44c.6.22,1.18.46,1.77.7-.69,1.2-1.23,2.32-1.93,3.33-1,1.4-1.94,0-3,.07A24.37,24.37,0,0,1,10.55,110.32Zm-4.86,9.82a2.44,2.44,0,0,1,.19-.44l1-2.44c.64-1.41,1.61-.36,2.38-.22,1.1.21.18.91.1,1.34a7.24,7.24,0,0,1-.63,1.47c-.63,1.4-1.38,1.67-2.77,1.15C5.38,120.79,5.64,120.47,5.69,120.14Zm-1.33,3.92c.39-.76,1.34,0,2.05-.08.5,0,.69.21.52.69-.35,1-.71,1.93-1,2.86-.62,1.17-1.58,1-2.53.79-.13,0-.33-.21-.31-.27A22,22,0,0,1,4.36,124.06ZM2.7,135.21a22.47,22.47,0,0,1-.27-4.2c0-.06.24-.19.36-.18,1,0,2,.11,2.26,1.39.1,1,.2,2,.3,3,0,.52-.2.68-.68.54C4,135.59,2.89,136,2.7,135.21Zm.75,7.21c-.13-.91-.24-1.76-.36-2.61a1.59,1.59,0,0,1-.07-.48c0-.33-.14-.7.48-.76,1.48-.15,2.14.29,2.39,1.8A6.81,6.81,0,0,1,6.13,142c0,.44.69,1.34-.43,1.27C4.92,143.17,3.72,144,3.45,142.42Zm1.81,7.64a24,24,0,0,1-1-4.05c1,.37,2.31-.77,2.89.82.43,1.16.68,2.38,1,3.71-.63.08-1.25.17-1.88.24A.85.85,0,0,1,5.26,150.06Zm2.29,5.24c-.23-.43-.43-.86-.64-1.3-.1-.18-.21-.37,0-.58s2.71-.24,2.92.14c.59,1,1.13,2.05,1.7,3.08C8.88,157.67,8.8,157.65,7.55,155.3Zm3.1,4.88c-.1-.23-.32-.61,0-.65.94-.12,2-.92,2.83-.14a26.1,26.1,0,0,1,2.37,2.8C13.35,163.37,11.8,162.74,10.65,160.18Zm4.5,4.94c2.75-1.25,2.75-1.25,5.51,1.8C18.25,168.68,17.64,168.48,15.15,165.12Zm30.39,8.71c.94,0,1.88-.15,2.82-.18,2.56-.08,5.06-.76,7.66-.83-4.56,2.19-9.44,2.87-14.65,3.2C43.18,173.94,43.18,174,45.54,173.83Zm-4.53-.1c-.69.7-.65,2-1.93,2.05a23.3,23.3,0,0,1-4.94-.4C36,172.38,38.67,174.09,41,173.73Zm-7.64-.47c-1.92,1.94-3.11,2-6.49.05C29,171.42,29.78,171.41,33.37,173.26Zm-6.57-2.57c-2.54,1.92-4.06,1.62-6.21-.94C23,167.08,24.62,169.93,26.8,170.69ZM23.89,98.21c3.25-2.63,3.89-2.67,5.79-.37C26.24,100.1,26.24,100.1,23.89,98.21Zm11.53,55.15c-.84-.12-1.68-.2-2.51-.33-2.26-.36-4.59-.28-6.88-.66a42.84,42.84,0,0,1,13.46.11C37.51,153.66,37.51,153.66,35.42,153.36Zm4.3,1.82c.9-.36,1.4-1.6,2.58-1.11a24,24,0,0,1,4.37,2.33C43.82,158.44,42,155.79,39.72,155.18Zm6.63,4.09c2.28-1.5,3.45-1.26,6.36,1.29C50.3,162,49.49,161.82,46.35,159.27Zm5.88,3.61c2.28-1.5,3.44-1.26,6.36,1.3C56.17,165.59,55.37,165.43,52.23,162.88Zm5.68,3.8c2.28-1.5,3.45-1.26,6.36,1.29C61.86,169.39,61.05,169.23,57.91,166.68Zm7-68.92c-.18.88-.77.27-1.17.15-.86-.26-1.71-.6-2.58-.87-.5-.16-.77-.37-.68-1,.32-2.22-.21-2,2-1.4.75.21,1.47.49,2.42.8C65.81,96.11,65,97,64.89,97.76Zm4.81,73.67c-.47.51-.45,1.72-1.47,1.41a11.42,11.42,0,0,1-2.48-1.42.8.8,0,0,1-.33-1.07c.41-.83.83-1.54,1.92-.76a14.78,14.78,0,0,0,1.93,1C69.63,170.79,70.18,170.91,69.7,171.43ZM67.62,99.48c-1.06-.68-.2-1.61,0-2.32s.78,0,1.18,0a4.47,4.47,0,0,1,.87.39l0,.08c.45.21.93.39,1.36.64,1.32.75,1.48,1.49.76,2.84-.24.46-.47.29-.75.14C69.85,100.7,68.69,100.16,67.62,99.48ZM76.43,174c-.37.69-.34,1.86-1.42,1.79-.93-.35-1.67-.59-2.37-.9-2.16-1-1.86-.46-.71-2.39.31-.51.65-.51,1.14-.31.84.34,1.71.61,2.55,1C76,173.34,76.84,173.25,76.43,174ZM77.65,105c-.12.86-.49.88-1.13.3a25.55,25.55,0,0,0-2.23-1.81,1,1,0,0,1-.49-1.13c.34-1.82.55-1.92,2-.76.43.34.86.68,1.28,1C78.25,103.56,78.24,103.56,77.65,105Zm6.23,70.76c-.29,1.5-.89,2-2.39,1.72a14.67,14.67,0,0,1-1.45-.37l0,.09a4.62,4.62,0,0,1-.92-.25c-.36-.19-1.3,0-1-.71s.24-1.92,1.49-1.78,2.51.47,3.76.72C83.69,175.21,84,175.22,83.88,175.73Zm0-67.26c-.13.86-.5.88-1.14.3A22.88,22.88,0,0,0,80.5,107a1,1,0,0,1-.49-1.13c.35-1.82.55-1.92,2-.76.43.34.86.68,1.28,1C84.46,107.06,84.46,107.06,83.87,108.47Zm1.75,1.2c.66-.72,1.33-1.43,2.52-.85.82.55,1.67,1.12,2.52,1.71.42.29.4.58,0,.86-.58.39-.94,1.52-1.7,1.14a23,23,0,0,1-3.41-2.46S85.54,109.76,85.62,109.67ZM90.81,177c-.5,1.44-.5,1.45-2,1.4-.55,0-1.09-.06-1.64-.09-1.86-.11-2-.32-1-1.91a1,1,0,0,1,1.11-.51,25.06,25.06,0,0,0,2.87.13C91,176,91.29,176.27,90.81,177Zm1.91-62.94c.82-1.23,1.59-1.46,2.91-.69a7.5,7.5,0,0,1,1.38.82c.32.31,1.47.33.7,1.15-.54.57-.71,2-2.06,1.22l-2.24-1.39a1.87,1.87,0,0,1-.41-.25C92.76,114.69,92.37,114.58,92.72,114.06Zm5.15,63.45a21.26,21.26,0,0,1-5,.71c.45-.83.07-2,1.24-2.27,1.5-.32,3-.49,4.68-.74C98.58,176.07,99.11,177.17,97.87,177.51Zm3.54-61c1.16.41,2.25,1,3.52,1.56-.35.54-.67,1.08-1,1.6a.85.85,0,0,1-1.22.35,24.64,24.64,0,0,1-3.75-1.81C99.86,117.69,99.8,116,101.41,116.53Zm3.3,58.71a23.25,23.25,0,0,1-3.79,1.42c.23-.82-.24-1.82.73-2.22,1.18-.5,2.44-.81,3.85-1.26C105.3,174.05,105.63,174.85,104.71,175.24ZM106.3,121c-.08-.41,1.54-2.24,2-2.17,1.15.2,2.3.44,3.45.67-.86,2.65-.93,2.7-3.54,2.17-.47-.1-.94-.22-1.4-.33C106.57,121.24,106.35,121.21,106.3,121Zm5.94,50.88a21.67,21.67,0,0,1-4.43,2.34c.14-.93-.62-1.93.4-2.56,1.3-.81,2.69-1.48,4.16-2.27C112.42,170.24,113.29,171.1,112.24,171.83Zm1.2-49.93c.51-.8.53-2.09,1.7-2.26a24.75,24.75,0,0,1,3.66,0c-.7,2.7-2.17,3.49-4.88,2.74C113.68,122.27,113.25,122.2,113.44,121.9Zm5.36,46a20.67,20.67,0,0,1-4.16,2.78c0-.94-.81-1.85.13-2.58,1.22-.94,2.53-1.75,3.91-2.69C118.81,166.27,119.77,167,118.8,167.88Zm5.89-4.84a21.24,21.24,0,0,1-3.77,3.3c-.07-.94-1-1.73-.2-2.58,1.08-1.09,2.28-2.06,3.53-3.17C124.5,161.45,125.54,162.08,124.69,163Zm-4.09-41c.79-2.91.79-2.91,4.9-3.1C125.31,121.91,124.77,122.26,120.6,122Zm9.62,35.38A21.51,21.51,0,0,1,126.7,161c-.14-.93-1.17-1.65-.39-2.56,1-1.16,2.12-2.22,3.29-3.42C129.91,155.83,131,156.39,130.22,157.41Zm-2.59-36.61c-.52-3.57,2.71-3,4.68-4.19C132.18,119.79,131,120.77,127.63,120.8Zm6.81,30.94A23.24,23.24,0,0,1,132,155c-.24-.81-1.17-1.41-.56-2.27.74-1,1.64-2,2.6-3.11C134.31,150.42,135,150.93,134.44,151.74Zm4.45-38c.27,2.72-.49,3.64-4.11,5C134.65,116,135.17,115.33,138.89,113.74Zm-3.18,35.69c-.71-2.38-.71-2.38.46-4,.47-.64.89-1.32,1.37-1.95,1.3-1.72,2.09-3.75,3.43-5.49C140.3,142.25,138.23,145.84,135.71,149.43Zm9.2-37.74a23.19,23.19,0,0,1-3.81,3.16c-.81-3.41,2.33-4.08,3.76-6C144.86,109.86,145.82,110.79,144.91,111.69Z"/><path class="cls-2" d="M7.55,197.82H12v6.46l5.48-6.46h5.23l-6,6.85,6.24,9.07h-5.3l-4-5.91L12,209.63v4.11H7.55Z"/><path class="cls-2" d="M23.92,197.13h4.5v3.19h-4.5Zm.09,4.31h4.32v12.3H24Z"/><path class="cls-2" d="M31.5,209.92v-5H30v-3.48H31.5v-3.12h4.32v3.12h2.87v3.48H35.82v4.16c0,.86.39,1.23,1.18,1.23a3.79,3.79,0,0,0,1.64-.41v3.39a6.16,6.16,0,0,1-3,.7C33.05,214,31.5,212.86,31.5,209.92Z"/><path class="cls-2" d="M39.63,212.2l1.61-2.62A8,8,0,0,0,45.47,211c.76,0,1.1-.23,1.1-.66v0c0-.48-.69-.69-2-1-2.44-.64-4.37-1.46-4.37-3.94v0c0-2.62,2.09-4.07,4.94-4.07a9.63,9.63,0,0,1,5.07,1.43l-1.48,2.73a8.24,8.24,0,0,0-3.64-1.14c-.66,0-1,.25-1,.59v0c0,.48.7.7,2,1.09,2.44.68,4.37,1.52,4.37,3.91v.05c0,2.71-2,4.12-5,4.12A9.89,9.89,0,0,1,39.63,212.2Z"/><path class="cls-2" d="M52.17,209.49v-8.05h4.32v6.66c0,1.34.71,2.07,1.75,2.07A1.82,1.82,0,0,0,60,208.1v-6.66h4.32v12.3H60v-1.68a4.52,4.52,0,0,1-3.68,2C53.74,214,52.17,212.29,52.17,209.49Z"/><path class="cls-2" d="M66.69,201.44H71v1.72a4.56,4.56,0,0,1,3.68-2c2.62,0,4.19,1.73,4.19,4.53v8.05H74.57v-6.66c0-1.34-.71-2.07-1.73-2.07A1.82,1.82,0,0,0,71,207.08v6.66H66.69Z"/><path class="cls-2" d="M80.63,207.65v-.05a6.18,6.18,0,0,1,6.21-6.44c4.25,0,6.21,3.12,6.21,6.74,0,.27,0,.59,0,.88H84.79a2.54,2.54,0,0,0,2.66,2,3.74,3.74,0,0,0,2.73-1.25l2.39,2a6.45,6.45,0,0,1-5.35,2.5C83.36,214,80.63,211.47,80.63,207.65ZM89,206.58c-.16-1.37-1-2.23-2.14-2.23s-1.91.89-2.14,2.23Z"/><path class="cls-2" d="M105.34,201.69h-4.77v-3.87h14v3.87h-4.78v12.05h-4.42Z"/><path class="cls-2" d="M115.2,197.82h4.94l3.62,10.08,3.62-10.08h4.84l-6.46,16h-4.09Z"/><path class="cls-2" d="M137.67,207.65h-3.85v-3.83h3.85v-3.91h4v3.91h3.84v3.83h-3.84v3.91h-4Z"/><path class="cls-3" d="M14.43,44.4s2.82,4.71,18.33,4.26c14.72-.42,36.95-2.7,48.47,10.91,0,0-7.58-1.35-14,.46,0,0,16.24,5.33,19.37,23.47,0,0-8.6-6.07-15.45-4.39,0,0,12.47,3.84,14.12,20.88a21.3,21.3,0,0,0-12.73-8l1.61,2.65S57.64,84.07,45.5,86.55c0,0,5.67-6.35,7.21-8.19a11.11,11.11,0,0,0,0-13.62C49.1,60.09,43.08,60.19,41,59.9,34.31,59,17.43,61.43,14.43,44.4Z"/></g></g></svg>