<?xml version="1.0" encoding="utf-8"?>
<!-- Generator: Adobe Illustrator 25.2.0, SVG Export Plug-In . SVG Version: 6.00 Build 0)  -->
<svg version="1.1" id="Capa_1" xmlns="http://www.w3.org/2000/svg" xmlns:xlink="http://www.w3.org/1999/xlink" x="0px" y="0px"
	 viewBox="0 0 626 626" style="enable-background:new 0 0 626 626;" xml:space="preserve">
<style type="text/css">
	.st0{fill:#646298;}
	.st1{fill:#BD4568;}
	.st2{fill:#EDA751;}
	.st3{fill:#FCD79D;}
	.st4{opacity:0.2;fill:#A35F00;enable-background:new    ;}
	.st5{fill:#FCD690;}
	.st6{fill:#FF91AB;}
	.st7{opacity:0.15;fill:#C17A00;enable-background:new    ;}
	.st8{fill:#FFDC9C;}
	.st9{opacity:7.000000e-02;}
</style>
<path class="st0" d="M593.6,626H32.4C14.5,626,0,611.5,0,593.6V32.4C0,14.5,14.5,0,32.4,0h561.1C611.5,0,626,14.5,626,32.4v561.1
	C626,611.5,611.5,626,593.6,626z"/>
<path class="st1" d="M230.5,339.4c-32.2,16.1-103.7,87.8-133.9,153.3c-3.2,7-0.6,15.3,6.1,19.1c46.6,26.6,162.9,22.4,218.1,12.6
	c22.7-50.7,4.4-193.9,4.4-193.9L230.5,339.4z"/>
<path class="st2" d="M124.3,523.2c-3.4,0-6.8-1.1-9.6-3.5c-6.4-5.3-7.2-14.8-1.9-21.1c26.8-32.3,50.6-38.5,71.6-44
	c15.4-4,28.8-7.5,43.7-21.9c6-5.7,15.5-5.5,21.2,0.4c5.7,6,5.6,15.5-0.4,21.2c-20.6,19.8-39.9,24.8-56.9,29.3
	c-19,5-35.5,9.3-56.2,34.2C132.9,521.4,128.6,523.2,124.3,523.2z"/>
<path class="st3" d="M121.8,488.7c-3,3-5.9,6.3-9,9.9c-5.3,6.4-4.4,15.8,1.9,21.1c2.8,2.3,6.2,3.5,9.6,3.5c4.3,0,8.6-1.8,11.5-5.4
	c2.9-3.4,5.6-6.5,8.3-9.2C138.6,499.3,129.7,492,121.8,488.7z"/>
<g>
	<path class="st2" d="M207.2,561.1c-8.7,0-17-4.7-21.3-12.9c-6.2-11.8-1.6-26.3,10.1-32.4c27.4-14.3,41.1-32.4,53.2-48.3
		c1.4-1.8,2.7-3.5,4-5.2c8.1-10.5,23.2-12.4,33.7-4.3c10.5,8.1,12.4,23.2,4.3,33.7c-1.2,1.6-2.5,3.3-3.8,4.9
		c-13.6,17.9-32.3,42.5-69.2,61.8C214.8,560.3,211,561.1,207.2,561.1z"/>
	<path class="st2" d="M323.7,561.5c-6.9,0-13.7-3-18.5-8.7c-8.5-10.2-7.1-25.3,3.1-33.8c19.7-16.4,15.7-38.8,14.1-42.6
		c-5.2-12.2,0.4-26.3,12.6-31.5c12.2-5.2,26.3,0.4,31.5,12.6c9.2,21.5,9.9,67.3-27.6,98.5C334.6,559.7,329.1,561.5,323.7,561.5z"/>
	<path class="st2" d="M390.3,418.9c-11.9,0-22.2-8.8-23.8-21c-1.7-13.2,7.6-25.2,20.8-26.9c16.8-2.2,68.3-30.2,98.4-53.5
		c10.5-8.1,25.6-6.2,33.7,4.3c8.1,10.5,6.2,25.6-4.3,33.7c-30,23.3-90.7,59.2-121.7,63.2C392.4,418.8,391.3,418.9,390.3,418.9z"/>
</g>
<g>
	<path class="st4" d="M434.7,404.5c0.3-16.8-3-33.3-9.7-48.8c-16.1,8.4-30.3,14.4-37.7,15.3c-13.2,1.7-22.5,13.7-20.8,26.9
		c1.6,12.1,11.9,21,23.8,21c1,0,2.1-0.1,3.1-0.2C404.4,417.2,419,411.9,434.7,404.5z"/>
	<path class="st4" d="M335.1,444.9c-12.2,5.2-17.8,19.3-12.6,31.5c1.6,3.7,5.6,26.2-14.1,42.6c-1.5,1.2-2.7,2.6-3.8,4
		c0.8,0,1.5,0,2.3,0c22.1,0,43.6-5.3,62.6-15.3c4.7-19.7,2.3-38.5-2.8-50.2C361.4,445.3,347.3,439.7,335.1,444.9z"/>
	<path class="st4" d="M287,457.9c-10.5-8.1-25.6-6.2-33.7,4.3c-1.3,1.7-2.6,3.5-4,5.2c-6.9,9.1-14.4,19-24.7,28.4
		c13.5,10.1,28.9,17.7,45.5,22.2c6.9-7.7,12.5-15.1,17.4-21.6c1.3-1.7,2.5-3.3,3.8-4.9C299.4,481.1,297.5,466,287,457.9z"/>
	<path class="st4" d="M228.2,432.7c-13.7,13.2-26.1,17.2-39.9,20.9c4,7.6,8.9,14.9,14.7,21.8c1.2,1.4,2.4,2.8,3.6,4.1
		c13.2-4.2,27.5-10.8,42.4-25.2c6-5.7,6.2-15.2,0.4-21.2C243.6,427.2,234.1,427,228.2,432.7z"/>
</g>
<ellipse transform="matrix(0.1252 -0.9921 0.9921 0.1252 -130.9555 652.6448)" class="st5" cx="304.6" cy="400.6" rx="102.9" ry="110.8"/>
<g>
	<path class="st6" d="M305,481.2c-0.9,0-1.8,0-2.7-0.1c-11.8-0.8-21.3-7.1-26.2-17.1c-1.8-3.7-0.3-8.2,3.5-10
		c3.7-1.8,8.2-0.3,10,3.5c3.2,6.6,9.3,8.4,13.8,8.7c6.9,0.5,14.2-2.3,17-6.5c2.3-3.4,7-4.3,10.4-2c3.4,2.3,4.3,7,2,10.4
		C327.3,476.1,316.4,481.2,305,481.2z"/>
	
		<ellipse transform="matrix(7.088904e-02 -0.9975 0.9975 7.088904e-02 -113.6657 740.3196)" class="st6" cx="340.6" cy="431.2" rx="41.7" ry="41.7"/>
</g>
<path class="st7" d="M275.9,499.6c-46.1-39.3-22-104.9-9.7-133.4l8.2-65.3c-41.7,10.4-74.3,43.3-79.6,85.8
	C188.3,438,223.7,485.7,275.9,499.6z"/>
<path class="st1" d="M204.8,328.4c-17.6,2.1-28.6,45.7,8.9,48.9c51.2,4.3,103.8,10.1,126,23.9c3.9,2.4,8.7,2.4,12.8,0.2
	c21.1-11.6,58.5-10.8,70.6-12.7c27.9-4.3,14.9-48-2.9-47C402.4,342.6,204.8,328.4,204.8,328.4z"/>
<path class="st2" d="M260.1,216.8c22.6-17,38.7-46.7,10.7-93.4c-28.3-47.1-73.5-61-109.5-58.7c-8.9,0.6-16.6,6.4-19.6,14.7
	c-12.2,33.9-11.5,81.2,25.8,121.5C204.5,241,237.5,233.8,260.1,216.8z"/>
<path class="st6" d="M140,84.7c-10.3,33.4-7.9,78,27.5,116.3c32.1,34.7,61.2,33.9,83.1,22C241.4,123.2,179.1,93.5,140,84.7z"/>
<path class="st2" d="M394.8,224.2c-20.7-19.3-33.5-50.6-0.5-94c33.2-43.8,79.7-52.6,115.2-46.5c8.8,1.5,15.8,8.1,17.9,16.8
	c8.5,35.1,2.7,82-38.8,118C447.5,254.2,415.4,243.5,394.8,224.2z"/>
<path class="st6" d="M528.6,105.8c6.7,34.4-0.6,78.4-39.9,112.7c-35.7,31-64.5,27.1-85,12.9C423.6,133.1,488.7,110.3,528.6,105.8z"
	/>
<path class="st8" d="M514.3,258.1c-4.7,86.1-91,119.2-195,113.6c-104-5.7-186.3-47.9-181.6-134c4.7-86.1,92.8-151.3,196.8-145.7
	C438.4,97.7,518.9,172,514.3,258.1z"/>
<path class="st7" d="M232.6,110.6c-54.2,24.8-91.9,71.6-94.9,127.1c-4,74,56.2,115.7,139.2,129.5C160.9,289,181.7,193.5,232.6,110.6
	z"/>
<g>
	
		<ellipse transform="matrix(5.430134e-02 -0.9985 0.9985 5.430134e-02 9.4437 484.6004)" class="st6" cx="260.6" cy="237.3" rx="27.2" ry="34.1"/>
	
		<ellipse transform="matrix(5.430134e-02 -0.9985 0.9985 5.430134e-02 174.265 678.6461)" class="st6" cx="445.4" cy="247.3" rx="27.2" ry="34.1"/>
</g>
<path class="st2" d="M224,456.3c-20.2,0-38.6-9.7-48-25.9c-5.6-9.5-7.7-20.6-6.1-32c1.5-10.8,6.1-21.8,13.9-32.8
	c7.7-10.8,22.7-13.4,33.5-5.7c10.8,7.7,13.4,22.7,5.7,33.5c-5.5,7.7-5.7,12.1-5.5,12.8c0.5,0.7,3.7,2.5,8.2,2
	c13.2-1.4,25,8.2,26.4,21.3c1.4,13.2-8.2,25-21.3,26.4C228.4,456.2,226.2,456.3,224,456.3z"/>
<g class="st9">
	<path d="M367.5,399.4c-24.6,12.5-54.8,18.5-66.6,19.1c-1.3,4-2,8.3-2,12.7c0,0.6,0,1.2,0,1.8c14.3-0.3,49.6-6.8,78-22.2
		C374.5,406.5,371.3,402.6,367.5,399.4z"/>
	<path d="M382.1,435c0.1-1.3,0.2-2.5,0.2-3.8c0-4.2-0.6-8.3-1.8-12.2c-27.1,17.4-67.8,24.6-79.7,24.6c1.6,5.2,4.2,9.9,7.5,14
		C326.1,455.8,357.2,449,382.1,435z"/>
</g>
<path d="M427,226.7c4,0,7.3-3.1,7.5-7.1l0.7-12c0.2-4.1-2.9-7.7-7.1-7.9c-4.1-0.2-7.7,2.9-7.9,7.1l-0.7,12c-0.2,4.1,2.9,7.7,7.1,7.9
	C426.7,226.7,426.9,226.7,427,226.7z M254,223.9c-10.8-2-33.3-1.6-42.8,0.3c-4.1,0.8-6.7,4.7-5.9,8.8c0.7,3.6,3.8,6.1,7.4,6.1
	c0.5,0,0.9,0,1.4-0.1c7.8-1.5,28.4-1.9,37.1-0.2c4.1,0.8,8-1.9,8.8-6C260.8,228.6,258.1,224.7,254,223.9z M438.5,264.9
	c-1.3,3.9,0.9,8.2,4.8,9.4c8.5,2.8,26.3,12.9,32.5,18c1.4,1.2,3.1,1.7,4.8,1.7c2.2,0,4.3-0.9,5.8-2.7c2.6-3.2,2.2-7.9-1-10.6
	c-7.5-6.2-27-17.3-37.4-20.7C444,258.8,439.8,261,438.5,264.9z M509.2,306.2c7.4-14.2,11.6-30.2,12.6-47.7c1-19.1-1.8-37.9-8.3-55.7
	c22.4-29.8,30.2-67.5,21.3-104.2c-2.8-11.6-12.2-20.4-23.9-22.4c-35.7-6.2-71.7,3.1-99.5,25.6c-23.6-9.9-49.5-15.8-76.4-17.3
	c-27-1.5-53.3,1.6-77.8,8.9c-25.2-25.3-60-38.5-96.1-36.2c-11.9,0.7-22.2,8.5-26.2,19.7c-12.8,35.5-9.2,73.8,9.9,105.9
	c-8.4,17-13.3,35.4-14.3,54.5c-1.5,27.2,5.2,51.4,19.8,72c2.4,3.4,7.1,4.2,10.5,1.8c3.4-2.4,4.2-7.1,1.8-10.5
	c-12.6-17.7-18.4-38.7-17.1-62.5c4.4-81.8,89.2-144,188.9-138.6c99.7,5.4,177.2,76.4,172.8,158.2c-1,19.3-6.4,36.1-16.1,50.5
	c-0.2,0.3-0.4,0.5-0.5,0.8c-9.4,13.6-22.6,24.8-39.6,33.7c-5,2.6-10.4,5-16,7.2c0,0,0,0-0.1,0c0,0-0.1,0-0.1,0.1
	c-30.7,11.8-69.9,16.7-114.6,14.3c-50.5-2.7-92.6-13.9-122.8-32.4c-0.2-0.1-0.4-0.3-0.6-0.4c0,0,0,0,0,0c-4-2.5-7.7-5-11.3-7.8
	c-3.3-2.5-8-1.9-10.5,1.4c-2.5,3.3-1.9,8,1.4,10.5c2.4,1.8,4.8,3.5,7.3,5.2c-1.8,5.3-2.4,10.9-1.8,16.2c-1.3,1.3-2.6,2.8-3.7,4.3
	c-5.1,7.2-9,14.5-11.6,21.8c-33.2,34.5-60.9,73.2-76.2,106.4c-4.9,10.6-0.9,23,9.2,28.8c2.3,1.3,4.9,2.6,7.6,3.9
	c1,1.2,2.1,2.4,3.3,3.4c4,3.4,9.1,5.2,14.4,5.2c1.9,0,3.8-0.3,5.6-0.7c13.1,3.3,28.4,5.8,45.7,7.4c0,4.9,1.2,9.8,3.6,14.4
	c5.5,10.4,16.2,16.9,27.9,16.9c5.1,0,10.1-1.2,14.6-3.6c15.6-8.2,28.1-17.2,38.6-26.7c10.9-0.6,21.6-1.4,31.8-2.5
	c-0.4,7.6,2,15.4,7.2,21.7c6,7.2,14.9,11.4,24.3,11.4c6.8,0,13.3-2.1,18.7-6.2c3.3-2.5,4-7.2,1.6-10.5c-2.5-3.3-7.2-4-10.5-1.6
	c-2.9,2.1-6.2,3.2-9.8,3.2c-4.9,0-9.6-2.2-12.7-6c-5.8-7-4.8-17.4,2.2-23.3c5.2-4.3,9.4-9.4,12.4-15.1c13.6-2.1,26.5-6.4,38.1-12.5
	c-1.1,8.8-3.9,19.1-9.8,29.6c-2,3.6-0.7,8.2,2.9,10.2c1.2,0.7,2.4,1,3.7,1c2.6,0,5.2-1.4,6.5-3.8c9.8-17.4,12.3-34.5,12.4-46.8
	c22.1-16.6,37.8-40.7,42.1-68.9c32.6-12.8,74.3-38.5,98.2-57c13.7-10.7,16.2-30.5,5.6-44.2C521.2,311.8,515.5,308.1,509.2,306.2z
	 M194.3,124.4c-16.8,12.5-30.6,27-41.1,43.1c-14.4-29-12.1-56.5-8-73.8c15.6,4.3,35.1,12.6,52.5,28.2
	C196.6,122.7,195.5,123.6,194.3,124.4z M210.8,113.5c-20-19-42.7-28.9-60.9-34c2.5-4.2,6.9-6.9,11.8-7.2
	c29.3-1.8,57.5,7.8,79.1,26.7C230.4,103,220.4,107.9,210.8,113.5z M455,126.8c-8.9-6.6-18.4-12.6-28.4-17.8
	c23.5-16.5,52.6-23,81.6-18c4.9,0.8,9,4.1,11,8.5C500.6,102.7,476.9,110,455,126.8z M506.4,186.7c-8.7-17.1-20.8-33.1-36.2-47.3
	c-1-1-2.1-1.9-3.2-2.9c19-13.6,39.3-19.7,55.3-22.3C524.5,131.8,523.8,159.4,506.4,186.7z M177.3,399.4c1.3-9.6,5.5-19.5,12.6-29.4
	c2.5-3.6,6.3-6,10.7-6.7c0.9-0.2,1.9-0.2,2.8-0.2c3.4,0,6.7,1,9.5,3c3.6,2.5,6,6.3,6.7,10.7c0.7,4.3-0.3,8.7-2.8,12.3
	c-5.5,7.8-7.9,14.8-6.6,19.3c0.2,0.7,0.5,1.4,0.9,2c2.5,3.8,8.9,6,15.2,5.3c4.4-0.5,8.7,0.8,12.1,3.6c3.4,2.8,5.6,6.7,6,11.1
	c0.5,4.4-0.8,8.7-3.6,12.1c-2.8,3.4-6.7,5.6-11.1,6c-2,0.2-4,0.3-5.9,0.3c-17.6,0-33.5-8.5-41.6-22.2
	C177.7,418.6,175.9,409.2,177.3,399.4z M107,493.8c-1.8,2.1-3.1,4.5-4,7.1c-0.5-1.7-0.4-3.5,0.4-5.1c12.3-26.7,33.1-57.3,58.5-86.2
	c0.6,8.8,3.1,17.1,7.5,24.6c3,5.1,6.8,9.7,11.2,13.6C160,453.3,134.6,460.7,107,493.8z M130.1,513c-0.8,0.9-1.7,1.6-2.8,2.1
	c-0.2,0.1-0.4,0.1-0.6,0.2c-0.8,0.3-1.6,0.4-2.4,0.4c-1.2,0-3.1-0.3-4.8-1.7c-0.7-0.6-1.2-1.2-1.6-1.9c0,0,0,0,0-0.1
	c-0.5-0.9-0.9-2-1-3.1c-0.2-2,0.4-3.9,1.7-5.5c25.3-30.4,46.9-36.1,67.8-41.5c4-1,7.8-2.1,11.6-3.2c3,1.3,6.2,2.3,9.5,3.1
	c1.8,2.5,3.8,5,5.8,7.3c-7.9,3.3-15.6,5.3-23.1,7.3C170.7,481.5,152.3,486.3,130.1,513z M179.2,522.6c-12.3-1.1-23.6-2.6-33.7-4.5
	c17.3-19,31.1-22.7,48.4-27.2c9.3-2.4,19.6-5.1,30.6-10.4c0.9,0.8,1.7,1.5,2.6,2.2c-7.8,8.4-18.6,18-34.6,26.4
	C186.6,512.3,182.1,517.1,179.2,522.6z M214.9,551.8c-2.4,1.3-5,1.9-7.6,1.9c-6.2,0-11.8-3.4-14.7-8.9c-4.2-8.1-1.1-18.1,7-22.3
	c18.8-9.8,31-21.1,39.8-30.8c9.6,6.1,20.2,10.9,31.3,14.2C257.3,522.1,240.6,538.3,214.9,551.8z M303.6,513.2
	c-2.5,2.1-4.6,4.4-6.2,7c-6.7,0.8-13.7,1.5-20.9,2.1c3.8-4.2,7.2-8.5,10.6-12.7c1.3,0.2,2.6,0.4,3.8,0.6c5.1,0.6,10.1,1,15.1,1
	C305.2,511.8,304.4,512.6,303.6,513.2z M407.1,413.5c-6.6,52.2-57.9,88.9-114.4,81.8c-18.6-2.3-35.9-9.2-50.4-19.7c0,0,0,0,0,0
	c-3.9-2.9-7.7-6-11.2-9.3c-0.1-0.1-0.2-0.1-0.2-0.2c-0.8-0.8-1.6-1.5-2.3-2.3c1-0.1,2-0.1,2.9-0.2c8.4-0.9,15.9-5,21.2-11.5
	c5.3-6.5,7.7-14.8,6.8-23.1c-0.9-8.4-5-15.9-11.5-21.2c-5.9-4.8-13.2-7.2-20.8-7c0.5-0.9,1.1-1.8,1.9-2.9c2.4-3.4,4.1-7.2,5-11.1
	c38.9,3.7,83.3,9.5,101.7,20.9c3.2,2,6.8,3,10.5,3c3.4,0,6.8-0.9,9.9-2.6c13.6-7.5,35.7-9.4,51.6-10.5
	C408,402.8,407.8,408.2,407.1,413.5z M409.8,382.3c-17.4,1.2-43.6,2.9-61,12.5c-1.7,0.9-3.6,0.9-5.2,0
	c-21.2-13.1-64.8-19-109.8-23.3c-0.7-2.8-1.8-5.5-3.3-7.9c25.6,8.6,55.3,13.9,88.3,15.7c7.7,0.4,15.2,0.6,22.6,0.6
	c33.9,0,64.4-4.4,90.2-13c0.3,3.7-0.3,7.1-1.7,9.6c-1.6,2.7-4.2,4.3-8,4.8C419.3,381.6,414.9,381.9,409.8,382.3z M510.5,349.5
	c-21.6,16.8-58.3,39.4-87.7,52.1c0-1.8-0.1-3.6-0.2-5.3c0.5-0.1,1.1-0.1,1.5-0.2c10.5-1.6,16-7.5,18.7-12.1
	c3.6-6.2,4.7-14.3,3.2-22.6c4-1.7,7.8-3.5,11.5-5.4c18.1-9.4,32.5-21.5,43.1-36c5,0.1,9.7,2.4,12.9,6.4
	C519,333.6,517.7,344,510.5,349.5z M454.5,249.7c8.9-0.7,29.3,1.9,36.9,4.3c0.7,0.2,1.5,0.3,2.2,0.3c3.2,0,6.2-2.1,7.2-5.3
	c1.2-4-1-8.2-5-9.4c-9.3-2.9-31.5-5.7-42.5-4.9c-4.1,0.3-7.2,3.9-6.9,8.1C446.8,246.9,450.4,250,454.5,249.7z M256.6,249.7
	c-10.8,2.2-31.3,11.2-39.4,16.5c-3.5,2.3-4.4,6.9-2.1,10.4c1.4,2.2,3.8,3.4,6.3,3.4c1.4,0,2.8-0.4,4.1-1.2
	c6.7-4.4,25.5-12.6,34.3-14.4c4.1-0.8,6.7-4.8,5.8-8.9S260.7,248.9,256.6,249.7z M281.9,218.8c4,0,7.3-3.1,7.5-7.1l0.7-12
	c0.2-4.1-2.9-7.7-7.1-7.9c-4.1-0.2-7.7,2.9-7.9,7.1l-0.7,12c-0.2,4.1,2.9,7.7,7.1,7.9C281.7,218.8,281.8,218.8,281.9,218.8z
	 M353.5,232c0.6,0,1.2,0,1.8,0c8.9,0,17.4-3.6,23.6-10c2.9-3,2.8-7.7-0.2-10.6c-3-2.9-7.7-2.8-10.6,0.2c-3.6,3.7-8.7,5.7-13.8,5.4
	c-5.2-0.3-10-2.8-13.1-6.9c-2.5-3.3-7.3-3.8-10.5-1.3c-3.3,2.5-3.8,7.3-1.3,10.5C335.2,226.9,344,231.5,353.5,232z"/>
</svg>
